<svg width="16" height="16" viewBox="0 0 16 16" fill="none" xmlns="http://www.w3.org/2000/svg">
<path fill-rule="evenodd" clip-rule="evenodd" d="M7.33301 2.66659C4.75568 2.66659 2.66634 4.75592 2.66634 7.33325C2.66634 9.91058 4.75568 11.9999 7.33301 11.9999C9.91034 11.9999 11.9997 9.91058 11.9997 7.33325C11.9997 4.75592 9.91034 2.66659 7.33301 2.66659ZM1.33301 7.33325C1.33301 4.01954 4.0193 1.33325 7.33301 1.33325C10.6467 1.33325 13.333 4.01954 13.333 7.33325C13.333 10.647 10.6467 13.3333 7.33301 13.3333C4.0193 13.3333 1.33301 10.647 1.33301 7.33325Z" fill="#A7A7A7"/>
<path fill-rule="evenodd" clip-rule="evenodd" d="M10.6289 10.6286C10.8892 10.3683 11.3113 10.3683 11.5717 10.6286L14.4717 13.5286C14.732 13.789 14.732 14.2111 14.4717 14.4714C14.2113 14.7318 13.7892 14.7318 13.5289 14.4714L10.6289 11.5714C10.3685 11.3111 10.3685 10.889 10.6289 10.6286Z" fill="#A7A7A7"/>
</svg>
