<svg width="48" height="48" viewBox="0 0 48 48" fill="none" xmlns="http://www.w3.org/2000/svg">
<circle cx="24" cy="24" r="24" fill="#F9F9FA"/>
<path fill-rule="evenodd" clip-rule="evenodd" d="M30.7071 17.2929C31.0976 17.6834 31.0976 18.3166 30.7071 18.7071L18.7071 30.7071C18.3166 31.0976 17.6834 31.0976 17.2929 30.7071C16.9024 30.3166 16.9024 29.6834 17.2929 29.2929L29.2929 17.2929C29.6834 16.9024 30.3166 16.9024 30.7071 17.2929Z" fill="url(#paint0_linear_3149_20401)"/>
<path fill-rule="evenodd" clip-rule="evenodd" d="M17.2929 17.2929C17.6834 16.9024 18.3166 16.9024 18.7071 17.2929L30.7071 29.2929C31.0976 29.6834 31.0976 30.3166 30.7071 30.7071C30.3166 31.0976 29.6834 31.0976 29.2929 30.7071L17.2929 18.7071C16.9024 18.3166 16.9024 17.6834 17.2929 17.2929Z" fill="url(#paint1_linear_3149_20401)"/>
<defs>
<linearGradient id="paint0_linear_3149_20401" x1="23.7479" y1="-9.03125" x2="-30.36" y2="33.8817" gradientUnits="userSpaceOnUse">
<stop stop-color="#F83600"/>
<stop offset="1" stop-color="#F9D423"/>
</linearGradient>
<linearGradient id="paint1_linear_3149_20401" x1="23.7479" y1="-9.03125" x2="-30.36" y2="33.8817" gradientUnits="userSpaceOnUse">
<stop stop-color="#F83600"/>
<stop offset="1" stop-color="#F9D423"/>
</linearGradient>
</defs>
</svg>
