<svg width="165" height="40" viewBox="0 0 165 40" fill="none" xmlns="http://www.w3.org/2000/svg">
<path d="M0 7C0 3.13401 3.13402 0 7.00002 0H33.0001C36.8661 0 40.0001 3.13401 40.0001 7V33C40.0001 36.866 36.8661 40 33.0001 40H7.00002C3.13402 40 0 36.866 0 33V7Z" fill="#6E76F1"/>
<path fill-rule="evenodd" clip-rule="evenodd" d="M32.538 13.7087H28.549C26.6077 11.1334 23.5036 9.46448 20.0093 9.46448C14.1331 9.46448 9.36268 14.1828 9.36268 19.9938C9.36268 25.8052 14.1331 30.5231 20.0093 30.5231C23.5036 30.5231 26.6077 28.8542 28.549 26.2794H32.538C30.2167 30.7921 25.4755 33.8867 20.0093 33.8867C12.2561 33.8867 5.96191 27.6618 5.96191 19.9938C5.96191 12.3262 12.2561 6.10132 20.0093 6.10132C25.4755 6.10132 30.2167 9.1959 32.538 13.7087ZM23.3522 20.6142C23.0574 22.1749 21.6718 23.3574 20.0093 23.3574C18.1319 23.3574 16.608 21.8503 16.608 19.9938C16.608 18.1377 18.1319 16.6306 20.0093 16.6306C21.6718 16.6306 23.0574 17.8131 23.3522 19.3738H40.0006V20.6142H23.3522Z" fill="white"/>
<path d="M55.7229 27.9999C54.2637 27.9999 52.9421 27.6805 51.7582 27.0416C50.5881 26.3888 49.6657 25.493 48.9912 24.3541C48.3304 23.2152 48 21.9305 48 20.4999C48 19.0694 48.3373 17.7846 49.0118 16.6458C49.6864 15.5069 50.6087 14.618 51.7788 13.9791C52.9627 13.3263 54.2843 12.9999 55.7435 12.9999C56.9274 12.9999 58.0081 13.2083 58.9855 13.6249C59.9629 14.0416 60.7889 14.6458 61.4634 15.4374L59.7289 17.0833C58.6826 15.9444 57.3955 15.3749 55.8674 15.3749C54.8763 15.3749 53.9883 15.5971 53.2037 16.0416C52.419 16.4721 51.8064 17.0763 51.3659 17.8541C50.9253 18.6319 50.7051 19.5138 50.7051 20.4999C50.7051 21.486 50.9253 22.368 51.3659 23.1458C51.8064 23.9235 52.419 24.5346 53.2037 24.9791C53.9883 25.4096 54.8763 25.6249 55.8674 25.6249C57.3955 25.6249 58.6826 25.0485 59.7289 23.8958L61.4634 25.5624C60.7889 26.3541 59.956 26.9583 58.9648 27.3749C57.9874 27.7916 56.9068 27.9999 55.7229 27.9999Z" fill="#363636"/>
<path d="M63.7878 12.3333H66.3689V27.7916H63.7878V12.3333Z" fill="#363636"/>
<path d="M80.1228 22.2916C80.1228 22.4721 80.109 22.7291 80.0815 23.0624H71.4294C71.5808 23.8819 71.9731 24.5346 72.6064 25.0208C73.2534 25.493 74.0518 25.7291 75.0017 25.7291C76.2131 25.7291 77.2112 25.3263 77.9959 24.5208L79.3794 26.1249C78.8838 26.7221 78.2574 27.1735 77.5003 27.4791C76.7431 27.7846 75.8896 27.9374 74.9398 27.9374C73.7283 27.9374 72.6614 27.6944 71.7391 27.2083C70.8168 26.7221 70.1009 26.0485 69.5916 25.1874C69.096 24.3124 68.8482 23.3263 68.8482 22.2291C68.8482 21.1458 69.0891 20.1735 69.5709 19.3124C70.0665 18.4374 70.7479 17.7569 71.6152 17.2708C72.4825 16.7846 73.4599 16.5416 74.5474 16.5416C75.6212 16.5416 76.5779 16.7846 77.4177 17.2708C78.2712 17.743 78.932 18.4166 79.4 19.2916C79.8818 20.1527 80.1228 21.1527 80.1228 22.2916ZM74.5474 18.6249C73.7214 18.6249 73.0194 18.8749 72.4412 19.3749C71.8768 19.861 71.5326 20.5138 71.4087 21.3333H77.6655C77.5553 20.5277 77.2181 19.8749 76.6537 19.3749C76.0892 18.8749 75.3872 18.6249 74.5474 18.6249Z" fill="#363636"/>
<path d="M92.7252 16.6666L87.9965 27.7916H85.3327L80.604 16.6666H83.2884L86.7162 24.9166L90.2473 16.6666H92.7252Z" fill="#363636"/>
<path d="M104.402 22.2916C104.402 22.4721 104.388 22.7291 104.361 23.0624H95.7086C95.86 23.8819 96.2523 24.5346 96.8856 25.0208C97.5326 25.493 98.331 25.7291 99.2809 25.7291C100.492 25.7291 101.49 25.3263 102.275 24.5208L103.659 26.1249C103.163 26.7221 102.537 27.1735 101.779 27.4791C101.022 27.7846 100.169 27.9374 99.219 27.9374C98.0075 27.9374 96.9406 27.6944 96.0183 27.2083C95.096 26.7221 94.3801 26.0485 93.8708 25.1874C93.3752 24.3124 93.1274 23.3263 93.1274 22.2291C93.1274 21.1458 93.3683 20.1735 93.8501 19.3124C94.3457 18.4374 95.0271 17.7569 95.8944 17.2708C96.7617 16.7846 97.7391 16.5416 98.8266 16.5416C99.9004 16.5416 100.857 16.7846 101.697 17.2708C102.55 17.743 103.211 18.4166 103.679 19.2916C104.161 20.1527 104.402 21.1527 104.402 22.2916ZM98.8266 18.6249C98.0006 18.6249 97.2986 18.8749 96.7204 19.3749C96.156 19.861 95.8118 20.5138 95.6879 21.3333H101.945C101.835 20.5277 101.497 19.8749 100.933 19.3749C100.368 18.8749 99.6664 18.6249 98.8266 18.6249Z" fill="#363636"/>
<path d="M109.339 18.2916C110.082 17.1249 111.39 16.5416 113.262 16.5416V19.0208C113.042 18.9791 112.842 18.9583 112.663 18.9583C111.658 18.9583 110.874 19.2569 110.309 19.8541C109.745 20.4374 109.463 21.2846 109.463 22.3958V27.7916H106.881V16.6666H109.339V18.2916Z" fill="#363636"/>
<path d="M115.452 12.3333H118.033V27.7916H115.452V12.3333Z" fill="#363636"/>
<path d="M125.633 16.5416C127.258 16.5416 128.496 16.9374 129.35 17.7291C130.217 18.5069 130.651 19.6874 130.651 21.2708V27.7916H128.214V26.4374C127.898 26.9235 127.443 27.2985 126.851 27.5624C126.273 27.8124 125.571 27.9374 124.745 27.9374C123.919 27.9374 123.196 27.7985 122.577 27.5208C121.958 27.2291 121.476 26.8333 121.132 26.3333C120.801 25.8194 120.636 25.243 120.636 24.6041C120.636 23.6041 121.001 22.8055 121.73 22.2083C122.474 21.5971 123.637 21.2916 125.22 21.2916H128.07V21.1249C128.07 20.3471 127.836 19.7499 127.368 19.3333C126.913 18.9166 126.232 18.7083 125.323 18.7083C124.704 18.7083 124.091 18.8055 123.486 18.9999C122.894 19.1944 122.391 19.4652 121.978 19.8124L120.966 17.9166C121.545 17.4721 122.24 17.1319 123.052 16.8958C123.864 16.6596 124.725 16.5416 125.633 16.5416ZM125.282 26.0416C125.929 26.0416 126.5 25.8958 126.996 25.6041C127.505 25.2985 127.863 24.868 128.07 24.3124V23.0208H125.406C123.919 23.0208 123.176 23.5138 123.176 24.4999C123.176 24.9721 123.362 25.3471 123.733 25.6249C124.105 25.9027 124.621 26.0416 125.282 26.0416Z" fill="#363636"/>
<path d="M140.22 16.5416C141.611 16.5416 142.726 16.9513 143.566 17.7708C144.405 18.5902 144.825 19.8055 144.825 21.4166V27.7916H142.244V21.7499C142.244 20.7777 142.017 20.0485 141.563 19.5624C141.108 19.0624 140.461 18.8124 139.621 18.8124C138.672 18.8124 137.921 19.1041 137.371 19.6874C136.82 20.2569 136.545 21.0833 136.545 22.1666V27.7916H133.964V16.6666H136.421V18.1041C136.848 17.5902 137.384 17.2013 138.031 16.9374C138.678 16.6735 139.408 16.5416 140.22 16.5416Z" fill="#363636"/>
<path d="M159 12.3333V27.7916H156.522V26.3541C156.095 26.8819 155.565 27.2777 154.932 27.5416C154.313 27.8055 153.624 27.9374 152.867 27.9374C151.807 27.9374 150.85 27.7013 149.997 27.2291C149.157 26.7569 148.496 26.0902 148.015 25.2291C147.533 24.3541 147.292 23.3541 147.292 22.2291C147.292 21.1041 147.533 20.111 148.015 19.2499C148.496 18.3888 149.157 17.7221 149.997 17.2499C150.85 16.7777 151.807 16.5416 152.867 16.5416C153.597 16.5416 154.264 16.6666 154.87 16.9166C155.476 17.1666 155.992 17.5416 156.419 18.0416V12.3333H159ZM153.177 25.7083C153.796 25.7083 154.354 25.5694 154.849 25.2916C155.345 24.9999 155.737 24.5902 156.026 24.0624C156.316 23.5346 156.46 22.9235 156.46 22.2291C156.46 21.5346 156.316 20.9235 156.026 20.3958C155.737 19.868 155.345 19.4652 154.849 19.1874C154.354 18.8958 153.796 18.7499 153.177 18.7499C152.557 18.7499 152 18.8958 151.504 19.1874C151.009 19.4652 150.616 19.868 150.327 20.3958C150.038 20.9235 149.894 21.5346 149.894 22.2291C149.894 22.9235 150.038 23.5346 150.327 24.0624C150.616 24.5902 151.009 24.9999 151.504 25.2916C152 25.5694 152.557 25.7083 153.177 25.7083Z" fill="#363636"/>
</svg>
