<svg width="23" height="22" viewBox="0 0 23 22" fill="none" xmlns="http://www.w3.org/2000/svg">
<path d="M11.0383 1.10996C11.2091 0.699318 11.7909 0.699318 11.9617 1.10996L14.5568 7.34933C14.6288 7.52245 14.7916 7.64073 14.9785 7.65571L21.7144 8.19573C22.1577 8.23127 22.3375 8.78452 21.9997 9.07386L16.8676 13.47C16.7252 13.592 16.6631 13.7834 16.7066 13.9658L18.2745 20.5389C18.3777 20.9715 17.9071 21.3134 17.5275 21.0816L11.7606 17.5592C11.6006 17.4615 11.3994 17.4615 11.2394 17.5592L5.47249 21.0816C5.09294 21.3134 4.62231 20.9715 4.72551 20.5389L6.29343 13.9658C6.33694 13.7834 6.27475 13.592 6.13236 13.47L1.0003 9.07386C0.662531 8.78452 0.842295 8.23127 1.28562 8.19573L8.02154 7.65571C8.20843 7.64073 8.37124 7.52245 8.44324 7.34933L11.0383 1.10996Z" fill="#FFBC1F"/>
</svg>
