<svg width="20" height="20" viewBox="0 0 20 20" fill="none" xmlns="http://www.w3.org/2000/svg">
<path fill-rule="evenodd" clip-rule="evenodd" d="M2.08301 9.99992C2.08301 9.56269 2.43745 9.20825 2.87467 9.20825H17.1247C17.5619 9.20825 17.9163 9.56269 17.9163 9.99992C17.9163 10.4371 17.5619 10.7916 17.1247 10.7916H2.87467C2.43745 10.7916 2.08301 10.4371 2.08301 9.99992Z" fill="#A7A7A7"/>
<path fill-rule="evenodd" clip-rule="evenodd" d="M2.08301 5.24992C2.08301 4.81269 2.43745 4.45825 2.87467 4.45825H17.1247C17.5619 4.45825 17.9163 4.81269 17.9163 5.24992C17.9163 5.68714 17.5619 6.04159 17.1247 6.04159H2.87467C2.43745 6.04159 2.08301 5.68714 2.08301 5.24992Z" fill="#A7A7A7"/>
<path fill-rule="evenodd" clip-rule="evenodd" d="M2.08301 14.7499C2.08301 14.3127 2.43745 13.9583 2.87467 13.9583H17.1247C17.5619 13.9583 17.9163 14.3127 17.9163 14.7499C17.9163 15.1871 17.5619 15.5416 17.1247 15.5416H2.87467C2.43745 15.5416 2.08301 15.1871 2.08301 14.7499Z" fill="#A7A7A7"/>
</svg>
