<svg width="20" height="20" viewBox="0 0 20 20" fill="none" xmlns="http://www.w3.org/2000/svg">
<path fill-rule="evenodd" clip-rule="evenodd" d="M2.0835 9.99992C2.0835 9.56269 2.43794 9.20825 2.87516 9.20825H17.1252C17.5624 9.20825 17.9168 9.56269 17.9168 9.99992C17.9168 10.4371 17.5624 10.7916 17.1252 10.7916H2.87516C2.43794 10.7916 2.0835 10.4371 2.0835 9.99992Z" fill="white"/>
<path fill-rule="evenodd" clip-rule="evenodd" d="M2.0835 5.24992C2.0835 4.81269 2.43794 4.45825 2.87516 4.45825H17.1252C17.5624 4.45825 17.9168 4.81269 17.9168 5.24992C17.9168 5.68714 17.5624 6.04159 17.1252 6.04159H2.87516C2.43794 6.04159 2.0835 5.68714 2.0835 5.24992Z" fill="white"/>
<path fill-rule="evenodd" clip-rule="evenodd" d="M2.0835 14.7499C2.0835 14.3127 2.43794 13.9583 2.87516 13.9583H17.1252C17.5624 13.9583 17.9168 14.3127 17.9168 14.7499C17.9168 15.1871 17.5624 15.5416 17.1252 15.5416H2.87516C2.43794 15.5416 2.0835 15.1871 2.0835 14.7499Z" fill="white"/>
</svg>
